<svg width="500" height="400" viewBox="0 0 500 400" fill="none" xmlns="http://www.w3.org/2000/svg">
  <!-- Background elements -->
  <rect width="500" height="400" rx="20" fill="#F0F9FF"/>
  <circle cx="400" cy="100" r="60" fill="#E0F2FE"/>
  <circle cx="100" cy="300" r="80" fill="#E0F2FE"/>
  
  <!-- Dashboard frame -->
  <rect x="50" y="50" width="400" height="300" rx="12" fill="white" stroke="#E2E8F0" stroke-width="2"/>
  
  <!-- Header -->
  <rect x="50" y="50" width="400" height="50" rx="12" fill="#2563EB"/>
  <circle cx="75" cy="75" r="10" fill="white" fill-opacity="0.3"/>
  <rect x="95" y="70" width="80" height="10" rx="5" fill="white" fill-opacity="0.3"/>
  <rect x="350" y="70" width="80" height="10" rx="5" fill="white" fill-opacity="0.3"/>
  
  <!-- Sidebar -->
  <rect x="50" y="100" width="80" height="250" fill="#F8FAFC"/>
  <rect x="65" y="120" width="50" height="8" rx="4" fill="#E2E8F0"/>
  <rect x="65" y="140" width="50" height="8" rx="4" fill="#E2E8F0"/>
  <rect x="65" y="160" width="50" height="8" rx="4" fill="#E2E8F0"/>
  <rect x="65" y="180" width="50" height="8" rx="4" fill="#E2E8F0"/>
  <rect x="65" y="200" width="50" height="8" rx="4" fill="#E2E8F0"/>
  
  <!-- Main content area -->
  <!-- Chart 1 -->
  <rect x="150" y="120" width="120" height="100" rx="8" fill="#F8FAFC" stroke="#E2E8F0" stroke-width="1"/>
  <rect x="160" y="130" width="60" height="8" rx="4" fill="#64748B"/>
  <path d="M160 170 L180 150 L200 160 L220 140 L240 155 L260 145" stroke="#2563EB" stroke-width="2" stroke-linecap="round"/>
  <circle cx="180" cy="150" r="3" fill="#2563EB"/>
  <circle cx="200" cy="160" r="3" fill="#2563EB"/>
  <circle cx="220" cy="140" r="3" fill="#2563EB"/>
  <circle cx="240" cy="155" r="3" fill="#2563EB"/>
  <circle cx="260" cy="145" r="3" fill="#2563EB"/>
  
  <!-- Chart 2 -->
  <rect x="290" y="120" width="120" height="100" rx="8" fill="#F8FAFC" stroke="#E2E8F0" stroke-width="1"/>
  <rect x="300" y="130" width="60" height="8" rx="4" fill="#64748B"/>
  <rect x="300" y="150" width="20" height="50" rx="2" fill="#BFDBFE"/>
  <rect x="330" y="170" width="20" height="30" rx="2" fill="#93C5FD"/>
  <rect x="360" y="140" width="20" height="60" rx="2" fill="#60A5FA"/>
  
  <!-- Data table -->
  <rect x="150" y="240" width="260" height="90" rx="8" fill="#F8FAFC" stroke="#E2E8F0" stroke-width="1"/>
  <rect x="160" y="250" width="80" height="8" rx="4" fill="#64748B"/>
  <line x1="150" y1="270" x2="410" y2="270" stroke="#E2E8F0" stroke-width="1"/>
  <rect x="160" y="280" width="40" height="6" rx="3" fill="#E2E8F0"/>
  <rect x="220" y="280" width="60" height="6" rx="3" fill="#E2E8F0"/>
  <rect x="320" y="280" width="30" height="6" rx="3" fill="#E2E8F0"/>
  <line x1="150" y1="295" x2="410" y2="295" stroke="#E2E8F0" stroke-width="1"/>
  <rect x="160" y="305" width="40" height="6" rx="3" fill="#E2E8F0"/>
  <rect x="220" y="305" width="60" height="6" rx="3" fill="#E2E8F0"/>
  <rect x="320" y="305" width="30" height="6" rx="3" fill="#E2E8F0"/>
  
  <!-- AI elements -->
  <circle cx="380" cy="200" r="25" fill="#EFF6FF"/>
  <path d="M370 200 L380 210 L390 190" stroke="#2563EB" stroke-width="3" stroke-linecap="round" stroke-linejoin="round"/>
  
  <!-- Decorative elements -->
  <circle cx="450" cy="350" r="15" fill="#DBEAFE"/>
  <circle cx="420" cy="330" r="8" fill="#BFDBFE"/>
  <circle cx="470" cy="320" r="5" fill="#93C5FD"/>
</svg> 