<svg width="120" height="40" viewBox="0 0 120 40" fill="none" xmlns="http://www.w3.org/2000/svg">
  <path d="M10 8L20 20L10 32" stroke="url(#paint0_linear)" stroke-width="4" stroke-linecap="round" stroke-linejoin="round"/>
  <path d="M20 8L30 20L20 32" stroke="url(#paint1_linear)" stroke-width="4" stroke-linecap="round" stroke-linejoin="round"/>
  <path d="M40 10H44.64C46.0533 10 47.2 10.2533 48.08 10.76C48.9733 11.2667 49.6267 11.9733 50.04 12.88C50.4533 13.7733 50.66 14.8133 50.66 16C50.66 17.1867 50.4533 18.2333 50.04 19.14C49.6267 20.0333 48.9733 20.74 48.08 21.26C47.2 21.7667 46.0533 22.02 44.64 22.02H40V10ZM44.5 19.62C45.5267 19.62 46.3133 19.3267 46.86 18.74C47.4067 18.1533 47.68 17.24 47.68 16C47.68 14.76 47.4067 13.8467 46.86 13.26C46.3133 12.6733 45.5267 12.38 44.5 12.38H42.92V19.62H44.5Z" fill="#2563EB"/>
  <path d="M56.8563 22.18C55.9096 22.18 55.0696 21.9933 54.3363 21.62C53.6163 21.2333 53.0563 20.6933 52.6563 20C52.2696 19.2933 52.0763 18.4733 52.0763 17.54C52.0763 16.6067 52.2763 15.7933 52.6763 15.1C53.0763 14.3933 53.6363 13.8533 54.3563 13.48C55.0896 13.1067 55.9229 12.92 56.8563 12.92C57.7896 12.92 58.6163 13.1067 59.3363 13.48C60.0696 13.8533 60.6363 14.3933 61.0363 15.1C61.4363 15.7933 61.6363 16.6067 61.6363 17.54C61.6363 18.4733 61.4363 19.2933 61.0363 20C60.6363 20.6933 60.0696 21.2333 59.3363 21.62C58.6163 21.9933 57.7896 22.18 56.8563 22.18ZM56.8563 19.98C57.4963 19.98 58.0163 19.7667 58.4163 19.34C58.8296 18.9 59.0363 18.3067 59.0363 17.54C59.0363 16.7733 58.8296 16.1867 58.4163 15.76C58.0163 15.32 57.4963 15.1 56.8563 15.1C56.2163 15.1 55.6896 15.32 55.2763 15.76C54.8763 16.1867 54.6763 16.7733 54.6763 17.54C54.6763 18.3067 54.8763 18.9 55.2763 19.34C55.6896 19.7667 56.2163 19.98 56.8563 19.98Z" fill="#2563EB"/>
  <path d="M63.4859 22.02V10H66.3459V15.32H66.4259L70.0659 10H73.3859L69.3059 15.7L73.5859 22.02H70.1659L67.2259 17.58L66.3459 18.82V22.02H63.4859Z" fill="#2563EB"/>
  <path d="M74.2953 22.02V10H77.1553V15.32H77.2353L80.8753 10H84.1953L80.1153 15.7L84.3953 22.02H80.9753L78.0353 17.58L77.1553 18.82V22.02H74.2953Z" fill="#2563EB"/>
  <path d="M85.1047 22.02V10H88.0047V19.62H93.0447V22.02H85.1047Z" fill="#2563EB"/>
  <path d="M94.4078 22.02V10H97.3078V19.62H102.348V22.02H94.4078Z" fill="#2563EB"/>
  <path d="M103.711 22.02V10H111.651V12.38H106.611V14.76H111.111V17.14H106.611V19.64H111.651V22.02H103.711Z" fill="#2563EB"/>
  <path d="M113.008 22.02V10H115.908V19.62H120.948V22.02H113.008Z" fill="#2563EB"/>
  <defs>
    <linearGradient id="paint0_linear" x1="10" y1="20" x2="20" y2="20" gradientUnits="userSpaceOnUse">
      <stop stop-color="#2563EB"/>
      <stop offset="1" stop-color="#06B6D4"/>
    </linearGradient>
    <linearGradient id="paint1_linear" x1="20" y1="20" x2="30" y2="20" gradientUnits="userSpaceOnUse">
      <stop stop-color="#2563EB"/>
      <stop offset="1" stop-color="#06B6D4"/>
    </linearGradient>
  </defs>
</svg> 