<svg width="600" height="400" viewBox="0 0 600 400" xmlns="http://www.w3.org/2000/svg">
  <!-- Background -->
  <rect width="600" height="400" rx="10" fill="#f8fafc" stroke="#e2e8f0" stroke-width="2"/>
  
  <!-- Header -->
  <rect x="0" y="0" width="600" height="60" rx="10" fill="#2563eb"/>
  <text x="30" y="38" font-family="Arial" font-size="20" font-weight="bold" fill="white">Pathway AI Dashboard</text>
  
  <!-- Sidebar -->
  <rect x="0" y="60" width="150" height="340" fill="#f1f5f9"/>
  
  <!-- Sidebar Menu Items -->
  <rect x="20" y="90" width="110" height="40" rx="5" fill="#2563eb"/>
  <text x="50" y="115" font-family="Arial" font-size="14" fill="white">Dashboard</text>
  
  <rect x="20" y="140" width="110" height="40" rx="5" fill="white" stroke="#e2e8f0" stroke-width="1"/>
  <text x="50" y="165" font-family="Arial" font-size="14" fill="#64748b">My Paths</text>
  
  <rect x="20" y="190" width="110" height="40" rx="5" fill="white" stroke="#e2e8f0" stroke-width="1"/>
  <text x="50" y="215" font-family="Arial" font-size="14" fill="#64748b">Resources</text>
  
  <rect x="20" y="240" width="110" height="40" rx="5" fill="white" stroke="#e2e8f0" stroke-width="1"/>
  <text x="50" y="265" font-family="Arial" font-size="14" fill="#64748b">Progress</text>
  
  <!-- Main Content Area -->
  <text x="180" y="100" font-family="Arial" font-size="22" font-weight="bold" fill="#1e293b">Your Learning Path: Web Development</text>
  
  <!-- Progress Bar -->
  <rect x="180" y="120" width="380" height="20" rx="10" fill="#e2e8f0"/>
  <rect x="180" y="120" width="190" height="20" rx="10" fill="#06b6d4"/>
  <text x="380" y="135" font-family="Arial" font-size="12" fill="#64748b">50% Complete</text>
  
  <!-- Timeline -->
  <line x1="180" y1="180" x2="560" y2="180" stroke="#e2e8f0" stroke-width="4" stroke-linecap="round"/>
  
  <!-- Timeline Nodes -->
  <circle cx="220" cy="180" r="15" fill="#10b981"/>
  <text x="220" y="185" font-family="Arial" font-size="12" fill="white" text-anchor="middle">1</text>
  
  <circle cx="300" cy="180" r="15" fill="#10b981"/>
  <text x="300" y="185" font-family="Arial" font-size="12" fill="white" text-anchor="middle">2</text>
  
  <circle cx="380" cy="180" r="15" fill="#06b6d4"/>
  <text x="380" y="185" font-family="Arial" font-size="12" fill="white" text-anchor="middle">3</text>
  
  <circle cx="460" cy="180" r="15" fill="#e2e8f0"/>
  <text x="460" y="185" font-family="Arial" font-size="12" fill="#64748b" text-anchor="middle">4</text>
  
  <circle cx="540" cy="180" r="15" fill="#e2e8f0"/>
  <text x="540" y="185" font-family="Arial" font-size="12" fill="#64748b" text-anchor="middle">5</text>
  
  <!-- Timeline Labels -->
  <text x="220" y="210" font-family="Arial" font-size="12" fill="#1e293b" text-anchor="middle">HTML</text>
  <text x="300" y="210" font-family="Arial" font-size="12" fill="#1e293b" text-anchor="middle">CSS</text>
  <text x="380" y="210" font-family="Arial" font-size="12" fill="#1e293b" text-anchor="middle">JavaScript</text>
  <text x="460" y="210" font-family="Arial" font-size="12" fill="#1e293b" text-anchor="middle">React</text>
  <text x="540" y="210" font-family="Arial" font-size="12" fill="#1e293b" text-anchor="middle">Backend</text>
  
  <!-- Current Module -->
  <rect x="180" y="240" width="380" height="120" rx="10" fill="white" stroke="#e2e8f0" stroke-width="2"/>
  <text x="200" y="270" font-family="Arial" font-size="18" font-weight="bold" fill="#1e293b">Current Module: JavaScript Basics</text>
  
  <!-- Module Content -->
  <rect x="200" y="290" width="20" height="20" rx="4" fill="#06b6d4"/>
  <text x="230" y="305" font-family="Arial" font-size="14" fill="#64748b">Variables and Data Types</text>
  
  <rect x="200" y="320" width="20" height="20" rx="4" fill="#06b6d4"/>
  <text x="230" y="335" font-family="Arial" font-size="14" fill="#64748b">Functions and Scope</text>
  
  <!-- Next Deadline -->
  <text x="400" y="305" font-family="Arial" font-size="14" font-weight="bold" fill="#ef4444">Next Deadline:</text>
  <text x="400" y="325" font-family="Arial" font-size="14" fill="#64748b">Friday, 5:00 PM</text>
</svg> 